<?xml version="1.0" encoding="UTF-8"?>
<svg id="OBJECTS" xmlns="http://www.w3.org/2000/svg" viewBox="0 0 448 128">
  <defs>
    <style>
      .cls-1 {
        fill: #fff;
      }
    </style>
  </defs>
  <path class="cls-1" d="m65.97,6.51c-31.7,0-57.49,25.79-57.49,57.49,0,31.7,25.79,57.49,57.49,57.49,31.7,0,57.49-25.79,57.49-57.49,0-31.7-25.79-57.49-57.49-57.49Zm1.3,6.93c20.37.51,38.23,13.93,45.8,32.84,4.12,10.29,4.21,20.01,2.18,28.94h-13.48s-7.35,0-7.35,0h-.38c-3.49,0-6.79,1.58-9,4.29-4.56,5.59-11.53,9.14-19.33,9.04-10.97-.13-20.83-7.86-23.52-18.49-.72-2.84-.89-5.62-.65-8.28h48.92s1.11,0,1.11,0h7.27c2.5,0,4.44-2.28,3.98-4.74-3.36-17.91-19.46-31.33-38.53-30.49-14.24.63-26.49,9.39-32.26,21.67-.84,1.79-2.69,2.89-4.66,2.89h-10.26c5.82-22.06,26.15-38.29,50.15-37.68Zm-22.19,37.68c4.33-7.01,12.08-11.69,20.92-11.69,8.84,0,16.59,4.67,20.91,11.69h-41.83Zm20.89,63.46c-28.6,0-51.73-23.86-50.53-52.72.03-.02.04-.04.07-.07h13.09c-.02.37-.05.74-.06,1.11-.61,21.2,16.4,38.58,37.46,38.58,11.71,0,22.16-5.38,29.03-13.8.81-.99,1.98-1.6,3.25-1.6h13.12c-8.22,16.84-25.47,28.5-45.43,28.5Zm101.49-81.31v29.01h29.45v6.45h-29.45v29.45h32.79v6.45h-40.57V26.83h40.57v6.45h-32.79Zm48.34,24.51c2.52-4.7,5.98-8.33,10.39-10.89,4.41-2.56,9.39-3.83,14.95-3.83s10.15,1.3,14.45,3.89c4.3,2.59,7.45,5.96,9.45,10.11V22.38h7.78v82.24h-7.78v-13.56c-1.85,4.22-4.89,7.69-9.11,10.39-4.22,2.71-9.19,4.06-14.89,4.06s-10.54-1.29-14.95-3.89c-4.41-2.59-7.85-6.26-10.34-11-2.48-4.74-3.72-10.22-3.72-16.45s1.26-11.69,3.78-16.39Zm46.23,3.61c-2-3.7-4.72-6.56-8.17-8.56s-7.24-3-11.39-3-8.15.96-11.56,2.89c-3.41,1.93-6.09,4.72-8.06,8.39-1.96,3.67-2.94,8.02-2.94,13.06s.98,9.32,2.94,13.06c1.96,3.74,4.65,6.59,8.06,8.56,3.41,1.96,7.26,2.94,11.56,2.94s7.95-1,11.39-3c3.45-2,6.17-4.85,8.17-8.56,2-3.7,3-8,3-12.89s-1-9.19-3-12.89Zm81.13-17.45v60.68h-7.78v-10.67c-1.78,3.78-4.52,6.67-8.22,8.67-3.71,2-7.85,3-12.45,3-7.26,0-13.19-2.24-17.78-6.72-4.59-4.48-6.89-10.98-6.89-19.5v-35.45h7.67v34.56c0,6.6,1.65,11.63,4.95,15.11,3.3,3.48,7.8,5.22,13.5,5.22s10.52-1.85,14-5.56c3.48-3.7,5.22-9.15,5.22-16.34v-33.01h7.78Zm25.56-21.56v82.24h-7.78V22.38h7.78Zm63.9,27.17c4.59,4.48,6.89,10.99,6.89,19.51v35.56h-7.67v-34.67c0-6.59-1.65-11.63-4.95-15.11-3.3-3.48-7.8-5.22-13.5-5.22s-10.52,1.85-14,5.56c-3.48,3.71-5.22,9.15-5.22,16.34v33.12h-7.78v-60.68h7.78v10.34c1.93-3.7,4.7-6.54,8.33-8.5,3.63-1.96,7.74-2.95,12.34-2.95,7.26,0,13.19,2.24,17.78,6.72Z"/>
</svg>