<?xml version="1.0" encoding="UTF-8"?>
<svg id="OBJECTS" xmlns="http://www.w3.org/2000/svg" viewBox="0 0 64 64">
  <defs>
    <style>
      .cls-1 {
        fill: #bd2031;
      }
    </style>
  </defs>
  <path class="cls-1" d="m32,2.48c-16.28,0-29.52,13.24-29.52,29.52,0,16.28,13.24,29.52,29.52,29.52,16.28,0,29.52-13.24,29.52-29.52,0-16.28-13.24-29.52-29.52-29.52Zm.67,3.56c10.46.26,19.63,7.15,23.52,16.87,2.12,5.28,2.16,10.28,1.12,14.86h-6.92s-3.78,0-3.78,0h-.19c-1.79,0-3.49.81-4.62,2.2-2.34,2.87-5.92,4.69-9.93,4.64-5.63-.07-10.7-4.03-12.08-9.5-.37-1.46-.46-2.89-.33-4.25h25.12s.57,0,.57,0h3.73c1.29,0,2.28-1.17,2.05-2.43-1.72-9.2-9.99-16.09-19.78-15.66-7.31.32-13.61,4.82-16.56,11.13-.43.92-1.38,1.48-2.4,1.48h-5.27c2.99-11.33,13.43-19.66,25.75-19.35Zm-11.4,19.35c2.22-3.6,6.2-6,10.74-6s8.52,2.4,10.74,6h-21.48Zm10.73,32.59c-14.69,0-26.56-12.25-25.95-27.07.01-.01.02-.02.03-.03h6.72c-.01.19-.02.38-.03.57-.31,10.89,8.42,19.81,19.24,19.81,6.02,0,11.38-2.76,14.91-7.09.41-.51,1.02-.82,1.67-.82h6.74c-4.22,8.65-13.08,14.63-23.33,14.63Z"/>
</svg>